<svg width="28" height="28" viewBox="0 0 28 28" fill="none" xmlns="http://www.w3.org/2000/svg">
<path d="M25.9332 27.3334L21.9998 23.4001V26.3667H19.3332V18.8334H26.8665V21.5001H23.8665L27.7998 25.4334L25.9332 27.3334ZM13.9998 26.8334C12.1554 26.8334 10.4221 26.4834 8.79984 25.7834C7.17761 25.0834 5.7665 24.1334 4.5665 22.9334C3.3665 21.7334 2.4165 20.3223 1.7165 18.7001C1.0165 17.0778 0.666504 15.3445 0.666504 13.5001C0.666504 11.6556 1.0165 9.92227 1.7165 8.30005C2.4165 6.67783 3.3665 5.26672 4.5665 4.06672C5.7665 2.86672 7.17761 1.91672 8.79984 1.21672C10.4221 0.516718 12.1554 0.166718 13.9998 0.166718C15.8443 0.166718 17.5776 0.516718 19.1998 1.21672C20.8221 1.91672 22.2332 2.86672 23.4332 4.06672C24.6332 5.26672 25.5832 6.67783 26.2832 8.30005C26.9832 9.92227 27.3332 11.6556 27.3332 13.5001C27.3332 13.9445 27.3109 14.3889 27.2665 14.8334C27.2221 15.2778 27.1554 15.7223 27.0665 16.1667H24.3332C24.4443 15.7223 24.5276 15.2778 24.5832 14.8334C24.6387 14.3889 24.6665 13.9445 24.6665 13.5001C24.6665 13.0556 24.6387 12.6112 24.5832 12.1667C24.5276 11.7223 24.4443 11.2778 24.3332 10.8334H19.7998C19.8665 11.2778 19.9165 11.7223 19.9498 12.1667C19.9832 12.6112 19.9998 13.0556 19.9998 13.5001C19.9998 13.9445 19.9832 14.3889 19.9498 14.8334C19.9165 15.2778 19.8665 15.7223 19.7998 16.1667H17.1332C17.1998 15.7223 17.2498 15.2778 17.2832 14.8334C17.3165 14.3889 17.3332 13.9445 17.3332 13.5001C17.3332 13.0556 17.3165 12.6112 17.2832 12.1667C17.2498 11.7223 17.1998 11.2778 17.1332 10.8334H10.8665C10.7998 11.2778 10.7498 11.7223 10.7165 12.1667C10.6832 12.6112 10.6665 13.0556 10.6665 13.5001C10.6665 13.9445 10.6832 14.3889 10.7165 14.8334C10.7498 15.2778 10.7998 15.7223 10.8665 16.1667H15.3332V18.8334H11.4665C11.7332 19.7889 12.0776 20.7056 12.4998 21.5834C12.9221 22.4612 13.4221 23.3001 13.9998 24.1001C14.4443 24.1001 14.8887 24.0723 15.3332 24.0167C15.7776 23.9612 16.2221 23.9112 16.6665 23.8667V26.6001C16.2221 26.6445 15.7776 26.6945 15.3332 26.7501C14.8887 26.8056 14.4443 26.8334 13.9998 26.8334ZM3.6665 16.1667H8.19984C8.13317 15.7223 8.08317 15.2778 8.04984 14.8334C8.0165 14.3889 7.99984 13.9445 7.99984 13.5001C7.99984 13.0556 8.0165 12.6112 8.04984 12.1667C8.08317 11.7223 8.13317 11.2778 8.19984 10.8334H3.6665C3.55539 11.2778 3.47206 11.7223 3.4165 12.1667C3.36095 12.6112 3.33317 13.0556 3.33317 13.5001C3.33317 13.9445 3.36095 14.3889 3.4165 14.8334C3.47206 15.2778 3.55539 15.7223 3.6665 16.1667ZM4.79984 8.16672H8.73317C8.93317 7.3445 9.18317 6.53894 9.48317 5.75005C9.78317 4.96116 10.1332 4.18894 10.5332 3.43338C9.31095 3.83338 8.21095 4.43894 7.23317 5.25005C6.25539 6.06116 5.44428 7.03338 4.79984 8.16672ZM10.5332 23.5667C10.1332 22.8112 9.78317 22.0389 9.48317 21.2501C9.18317 20.4612 8.93317 19.6556 8.73317 18.8334H4.79984C5.44428 19.9667 6.25539 20.9389 7.23317 21.7501C8.21095 22.5612 9.31095 23.1667 10.5332 23.5667ZM11.4665 8.16672H16.5332C16.2665 7.21116 15.9221 6.2945 15.4998 5.41672C15.0776 4.53894 14.5776 3.70005 13.9998 2.90005C13.4221 3.70005 12.9221 4.53894 12.4998 5.41672C12.0776 6.2945 11.7332 7.21116 11.4665 8.16672ZM19.2665 8.16672H23.1998C22.5554 7.03338 21.7443 6.06116 20.7665 5.25005C19.7887 4.43894 18.6887 3.83338 17.4665 3.43338C17.8665 4.18894 18.2165 4.96116 18.5165 5.75005C18.8165 6.53894 19.0665 7.3445 19.2665 8.16672Z" fill="#252624"/>
</svg>
