<svg width="32" height="32" viewBox="0 0 32 32" fill="none" xmlns="http://www.w3.org/2000/svg">
<mask id="mask0_3_232" style="mask-type:alpha" maskUnits="userSpaceOnUse" x="0" y="0" width="32" height="32">
<rect width="32" height="32" fill="#D9D9D9"/>
</mask>
<g mask="url(#mask0_3_232)">
<path d="M2.6665 28V6.33336L9.33317 1.33336L15.9998 6.33336V9.33336H29.3332V28H2.6665ZM5.33317 25.3334H7.99984V22.6667H5.33317V25.3334ZM5.33317 20H7.99984V17.3334H5.33317V20ZM5.33317 14.6667H7.99984V12H5.33317V14.6667ZM5.33317 9.33336H7.99984V6.66669H5.33317V9.33336ZM10.6665 9.33336H13.3332V6.66669H10.6665V9.33336ZM10.6665 25.3334H26.6665V12H10.6665V25.3334ZM18.6665 17.3334V14.6667H23.9998V17.3334H18.6665ZM18.6665 22.6667V20H23.9998V22.6667H18.6665ZM13.3332 17.3334V14.6667H15.9998V17.3334H13.3332ZM13.3332 22.6667V20H15.9998V22.6667H13.3332Z" fill="#252624"/>
</g>
</svg>
