<svg width="28" height="28" viewBox="0 0 28 28" fill="none" xmlns="http://www.w3.org/2000/svg">
<path d="M9.99984 19.3334C10.7332 19.3334 11.3609 19.0723 11.8832 18.5501C12.4054 18.0278 12.6665 17.4001 12.6665 16.6667C12.6665 15.9334 12.4054 15.3056 11.8832 14.7834C11.3609 14.2612 10.7332 14.0001 9.99984 14.0001C9.2665 14.0001 8.63873 14.2612 8.1165 14.7834C7.59428 15.3056 7.33317 15.9334 7.33317 16.6667C7.33317 17.4001 7.59428 18.0278 8.1165 18.5501C8.63873 19.0723 9.2665 19.3334 9.99984 19.3334ZM17.9998 19.3334C18.7332 19.3334 19.3609 19.0723 19.8832 18.5501C20.4054 18.0278 20.6665 17.4001 20.6665 16.6667C20.6665 15.9334 20.4054 15.3056 19.8832 14.7834C19.3609 14.2612 18.7332 14.0001 17.9998 14.0001C17.2665 14.0001 16.6387 14.2612 16.1165 14.7834C15.5943 15.3056 15.3332 15.9334 15.3332 16.6667C15.3332 17.4001 15.5943 18.0278 16.1165 18.5501C16.6387 19.0723 17.2665 19.3334 17.9998 19.3334ZM13.9998 12.6667C14.7332 12.6667 15.3609 12.4056 15.8832 11.8834C16.4054 11.3612 16.6665 10.7334 16.6665 10.0001C16.6665 9.26672 16.4054 8.63894 15.8832 8.11672C15.3609 7.5945 14.7332 7.33338 13.9998 7.33338C13.2665 7.33338 12.6387 7.5945 12.1165 8.11672C11.5943 8.63894 11.3332 9.26672 11.3332 10.0001C11.3332 10.7334 11.5943 11.3612 12.1165 11.8834C12.6387 12.4056 13.2665 12.6667 13.9998 12.6667ZM13.9998 27.3334C12.1554 27.3334 10.4221 26.9834 8.79984 26.2834C7.17762 25.5834 5.7665 24.6334 4.5665 23.4334C3.3665 22.2334 2.4165 20.8223 1.7165 19.2001C1.0165 17.5778 0.666504 15.8445 0.666504 14.0001C0.666504 12.1556 1.0165 10.4223 1.7165 8.80005C2.4165 7.17783 3.3665 5.76672 4.5665 4.56672C5.7665 3.36672 7.17762 2.41672 8.79984 1.71672C10.4221 1.01672 12.1554 0.666718 13.9998 0.666718C15.8443 0.666718 17.5776 1.01672 19.1998 1.71672C20.8221 2.41672 22.2332 3.36672 23.4332 4.56672C24.6332 5.76672 25.5832 7.17783 26.2832 8.80005C26.9832 10.4223 27.3332 12.1556 27.3332 14.0001C27.3332 15.8445 26.9832 17.5778 26.2832 19.2001C25.5832 20.8223 24.6332 22.2334 23.4332 23.4334C22.2332 24.6334 20.8221 25.5834 19.1998 26.2834C17.5776 26.9834 15.8443 27.3334 13.9998 27.3334ZM13.9998 24.6667C16.9776 24.6667 19.4998 23.6334 21.5665 21.5667C23.6332 19.5001 24.6665 16.9778 24.6665 14.0001C24.6665 11.0223 23.6332 8.50005 21.5665 6.43338C19.4998 4.36672 16.9776 3.33338 13.9998 3.33338C11.0221 3.33338 8.49984 4.36672 6.43317 6.43338C4.3665 8.50005 3.33317 11.0223 3.33317 14.0001C3.33317 16.9778 4.3665 19.5001 6.43317 21.5667C8.49984 23.6334 11.0221 24.6667 13.9998 24.6667Z" fill="#252624"/>
</svg>
