<svg width="24" height="24" viewBox="0 0 24 24" fill="none" xmlns="http://www.w3.org/2000/svg">
<path d="M7.5 8.49998V6.16665H18V8.49998H7.5ZM7.5 12V9.66665H18V12H7.5ZM11 23.6666H4C3.02778 23.6666 2.20139 23.3264 1.52083 22.6458C0.840278 21.9653 0.5 21.1389 0.5 20.1666V16.6666H4V0.333313H21.5V10.8625C21.1111 10.8236 20.7174 10.8382 20.3188 10.9062C19.9201 10.9743 19.5361 11.0958 19.1667 11.2708V2.66665H6.33333V16.6666H13.3333L11 19H2.83333V20.1666C2.83333 20.4972 2.94514 20.7743 3.16875 20.9979C3.39236 21.2215 3.66944 21.3333 4 21.3333H11V23.6666ZM13.3333 23.6666V20.0791L19.7792 13.6625C19.9542 13.4875 20.1486 13.3611 20.3625 13.2833C20.5764 13.2055 20.7903 13.1666 21.0042 13.1666C21.2375 13.1666 21.4611 13.2104 21.675 13.2979C21.8889 13.3854 22.0833 13.5166 22.2583 13.6916L23.3375 14.7708C23.4931 14.9458 23.6146 15.1403 23.7021 15.3541C23.7896 15.568 23.8333 15.7819 23.8333 15.9958C23.8333 16.2097 23.7944 16.4285 23.7167 16.6521C23.6389 16.8757 23.5125 17.075 23.3375 17.25L16.9208 23.6666H13.3333ZM15.0833 21.9166H16.1917L19.7208 18.3583L19.1958 17.8041L18.6417 17.2791L15.0833 20.8083V21.9166ZM19.1958 17.8041L18.6417 17.2791L19.7208 18.3583L19.1958 17.8041Z" fill="#C5FCD6"/>
</svg>
