<svg width="28" height="28" viewBox="0 0 28 28" fill="none" xmlns="http://www.w3.org/2000/svg">
<mask id="mask0_3_191" style="mask-type:alpha" maskUnits="userSpaceOnUse" x="0" y="0" width="28" height="28">
<rect width="28" height="28" fill="#D9D9D9"/>
</mask>
<g mask="url(#mask0_3_191)">
<path d="M10.5 10.5V8.16666H21V10.5H10.5ZM10.5 14V11.6667H21V14H10.5ZM14 25.6667H7C6.02778 25.6667 5.20139 25.3264 4.52083 24.6458C3.84028 23.9653 3.5 23.1389 3.5 22.1667V18.6667H7V2.33332H24.5V12.8625C24.1111 12.8236 23.7174 12.8382 23.3188 12.9062C22.9201 12.9743 22.5361 13.0958 22.1667 13.2708V4.66666H9.33333V18.6667H16.3333L14 21H5.83333V22.1667C5.83333 22.4972 5.94514 22.7743 6.16875 22.9979C6.39236 23.2215 6.66944 23.3333 7 23.3333H14V25.6667ZM16.3333 25.6667V22.0792L22.7792 15.6625C22.9542 15.4875 23.1486 15.3611 23.3625 15.2833C23.5764 15.2055 23.7903 15.1667 24.0042 15.1667C24.2375 15.1667 24.4611 15.2104 24.675 15.2979C24.8889 15.3854 25.0833 15.5167 25.2583 15.6917L26.3375 16.7708C26.4931 16.9458 26.6146 17.1403 26.7021 17.3542C26.7896 17.568 26.8333 17.7819 26.8333 17.9958C26.8333 18.2097 26.7944 18.4285 26.7167 18.6521C26.6389 18.8757 26.5125 19.075 26.3375 19.25L19.9208 25.6667H16.3333ZM18.0833 23.9167H19.1917L22.7208 20.3583L22.1958 19.8042L21.6417 19.2792L18.0833 22.8083V23.9167ZM22.1958 19.8042L21.6417 19.2792L22.7208 20.3583L22.1958 19.8042Z" fill="#252624"/>
</g>
</svg>
